<?xml version="1.0" encoding="UTF-8" standalone="no" ?>
<!DOCTYPE svg PUBLIC "-//W3C//DTD SVG 1.1//EN" "http://www.w3.org/Graphics/SVG/1.1/DTD/svg11.dtd">
<svg xmlns="http://www.w3.org/2000/svg" xmlns:xlink="http://www.w3.org/1999/xlink" version="1.1" width="1080" height="1080" viewBox="0 0 1080 1080" xml:space="preserve">
<desc>Created with Fabric.js 5.2.4</desc>
<defs>
</defs>
<g transform="matrix(1 0 0 1 540 540)" id="becbc7cb-5d11-400b-be59-e4776a6e325b"  >
<rect style="stroke: none; stroke-width: 1; stroke-dasharray: none; stroke-linecap: butt; stroke-dashoffset: 0; stroke-linejoin: miter; stroke-miterlimit: 4; fill: rgb(255,255,255); fill-rule: nonzero; opacity: 1; visibility: hidden;" vector-effect="non-scaling-stroke"  x="-540" y="-540" rx="0" ry="0" width="1080" height="1080" />
</g>
<g transform="matrix(1 0 0 1 540 540)" id="f69ff401-a3ae-4818-9f9a-0347e876cbe1"  >
</g>
<g transform="matrix(1 0 0 1 540 540)" id="53c0a6ad-cb19-4994-bf7e-291308dd6c6f"  >
<path style="stroke: rgb(0,0,0); stroke-width: 0; stroke-dasharray: none; stroke-linecap: butt; stroke-dashoffset: 0; stroke-linejoin: miter; stroke-miterlimit: 4; fill: rgb(255,122,89); fill-rule: nonzero; opacity: 1;" vector-effect="non-scaling-stroke"  transform=" translate(-87, -117.14)" d="M 0 10 C 0 4.47715 4.47715 0 10 0 L 164 0 C 169.523 0 174 4.47715 174 10 L 174 225 C 174 230.523 169.498 235.014 164.07 233.996 C 139.642 229.415 109.557 210.364 97.2038 201.984 C 93.73 199.628 89.1953 199.526 85.6225 201.729 C 72.0734 210.085 37.6823 229.91 9.95066 234.181 C 4.49215 235.021 0 230.523 0 225 L 0 10 Z" stroke-linecap="round" />
</g>
<g transform="matrix(1 0 0 1 540 458.02)" style="" id="14934bdb-2d4b-4a83-ab14-53e05c3a0207"  >
		<text xml:space="preserve" font-family="Raleway" font-size="32" font-style="normal" font-weight="900" style="stroke: none; stroke-width: 1; stroke-dasharray: none; stroke-linecap: butt; stroke-dashoffset: 0; stroke-linejoin: miter; stroke-miterlimit: 4; fill: rgb(255,255,255); fill-rule: nonzero; opacity: 1; white-space: pre;" ><tspan x="-69.18" y="10.05" >GRATUIT</tspan></text>
</g>
<g transform="matrix(1 0 0 1 540 556.92)" style="" id="03168db6-056d-4eae-9db4-72ced0a27fcd"  >
		<text xml:space="preserve" font-family="Alegreya" font-size="42" font-style="normal" font-weight="700" style="stroke: none; stroke-width: 1; stroke-dasharray: none; stroke-linecap: butt; stroke-dashoffset: 0; stroke-linejoin: miter; stroke-miterlimit: 4; fill: rgb(255,255,255); fill-rule: nonzero; opacity: 1; white-space: pre;" ><tspan x="-34.73" y="13.19" >LES</tspan></text>
</g>
<g transform="matrix(1 0 0 1 540 504.6)" style="" id="7ecf3c83-37a4-4afb-ac73-1fd6c7c3ff11"  >
		<text xml:space="preserve" font-family="Alegreya" font-size="37" font-style="normal" font-weight="700" style="stroke: none; stroke-width: 1; stroke-dasharray: none; stroke-linecap: butt; stroke-dashoffset: 0; stroke-linejoin: miter; stroke-miterlimit: 4; fill: rgb(255,255,255); fill-rule: nonzero; opacity: 1; white-space: pre;" ><tspan x="-37.28" y="11.62" >Pour</tspan></text>
</g>
<g transform="matrix(1 0 0 1 540 594.29)" style="" id="773c9e6c-2c64-4ddd-b64e-b5efa30c81a3"  >
		<text xml:space="preserve" font-family="Alegreya" font-size="34" font-style="normal" font-weight="700" style="stroke: none; stroke-width: 1; stroke-dasharray: none; stroke-linecap: butt; stroke-dashoffset: 0; stroke-linejoin: miter; stroke-miterlimit: 4; fill: rgb(255,255,255); fill-rule: nonzero; opacity: 1; white-space: pre;" ><tspan x="-85.08" y="10.68" >Travailleurs</tspan></text>
</g>
</svg>